<?xml version="1.0" encoding="utf-8"?>
<!-- Generator: Adobe Illustrator 24.1.2, SVG Export Plug-In . SVG Version: 6.00 Build 0)  -->
<svg version="1.1" id="Layer_1" xmlns="http://www.w3.org/2000/svg" xmlns:xlink="http://www.w3.org/1999/xlink" x="0px" y="0px"
	 viewBox="0 0 283.5 283.5" style="enable-background:new 0 0 283.5 283.5;" xml:space="preserve">
<style type="text/css">
	.st0{fill:#FC9822;}
	.st1{fill:#83AD3A;}
	.st2{fill:#80AD38;}
</style>
<path class="st0" d="M69.8,92.5c0.8,1.8,6.2,12.7,6.8,15c3.2,13.9-3.1,25.3-4,26.9c-7.3,12.8-16.2,9.8-21.5,22.4
	c-4.1,9.8-2.4,20.3-2.3,20.8c0.6,3.5,1.7,6.5,1.9,7c1.3,3.5,3.8,7,5.4,9.3c13.3-0.1,25.2-5.5,33.9-14.2c2-2,14.1-14.5,14-34
	c0-13.7-6-23.5-8.4-27.1c-5-7.3-11-11.7-14.6-13.9C77.2,100.7,73.5,96.6,69.8,92.5z M79.6,169c-8.2,12.8-22.5,14.8-24.6,15.1
	c1-4.2,2.8-10.1,6.5-16.4c3.9-6.6,8.3-11.2,11.6-14.1c-3.8,2.8-9.2,7.5-13.9,14.7c-4,6.1-6.2,11.8-7.4,16c-0.9-3.2-1.8-8.6-0.5-14.8
	c1.9-9,7.3-15,9.6-17.4c4.6-5,7.2-5.3,12.6-11.4c2.8-3.3,4.8-6.2,6-8.2C86.4,143.9,86.5,158.2,79.6,169z"/>
<path class="st1" d="M46.5,182.6c-4.3-9.5-2.1-19.2-0.7-25.5c0.6-2.7,1.3-4.9,2.6-8.9c1.3-4,3-9.3,5.5-14.5
	c2-4.3,5.5-10.3,11.3-16.8c-1.8,1-4.4,2.6-6.9,5.2c-0.6,0.7-2.5,2.6-4.4,6c-4.9,8.4-8.7,22.9-9.2,24.9c-3.1-6.9-3-12.5-2.8-15.5
	c0.9-10.7,7.7-18.7,10.6-22.1c1.1-1.3,1.4-1.5,7.6-8.3c2.8-3.1,5-5.6,6.5-7.3c0.2-0.2,0.4-0.5,0.6-0.8c-3.6-0.9-7.4-1.3-11.3-1.3
	c-26.6,0-48.2,21.6-48.2,48.2c0,26.5,21.4,48,47.8,48.2C50.7,189.9,47.6,185.1,46.5,182.6z M41,165.5c-1.1,0.1-1.2-6.8-6.2-13.7
	c-3-4-6.5-6.5-9.2-8.1c2.2,1.8,5.6,4.9,8.5,9.8c2.8,4.8,3.9,9.3,4.3,12.1c-2.3-0.3-9.8-1.5-15-7.7c-9.5-11.3-3-29.2-0.7-29.3
	c0.9,0,0.8,2.4,3.8,6.6c2.6,3.8,4.2,4.1,8.1,8.3c3.1,3.3,5.4,6,6.8,9.9C43.3,159.3,42.1,165.3,41,165.5z"/>
<g>
	<path class="st2" d="M199.1,110.1h0.1c0.3,0,0.5,0.1,0.7,0.4v0.1c0,0.3-0.5,0.7-1.6,1.2c-0.9,0.8-1.5,1.6-1.8,2.4
		c-0.2,0.6-0.3,0.9-0.4,0.9c-0.1-0.1-0.1-0.3-0.1-0.6v-0.4c0-1.5,0.7-2.7,2-3.6C198.4,110.2,198.8,110.1,199.1,110.1z M204.2,120
		h-1.7c-1.3,0-2.2,0-2.6-0.1c-0.4-0.1-0.8-0.3-1.4-0.6c-1.2-0.9-1.8-2.1-1.8-3.7c0-1.2,0.4-2.2,1.3-3.1c0.8-0.8,1.7-1.1,2.7-1.2
		c0.4,0,1,0,1.8,0h1.7V120z M202.2,118v-4.8h-0.9c-0.8,0-1.4,0.2-1.9,0.7c-0.5,0.4-0.7,1-0.7,1.7c0,1,0.4,1.8,1.3,2.2
		c0.3,0.1,0.7,0.2,1.3,0.2H202.2z"/>
	<path class="st2" d="M207.2,111.3h1.7c0.1,0,0.1,0.1,0.1,0.1v9.1c0,2.7-1.3,4.5-3.8,5.4H205c1.4-1.2,2.1-2.8,2.1-4.9v-9.6
		C207.1,111.4,207.1,111.3,207.2,111.3z M206.9,119.3v-8h2v9.2C207.6,121.3,206.9,121,206.9,119.3z"/>
	<path class="st2" d="M218.6,118h0.3v2h-0.3h-2h-0.5c-0.9,0-1.4,0-1.7-0.1c-0.6-0.1-1.1-0.3-1.6-0.7c-1.2-0.9-1.8-2.1-1.8-3.6
		c0-1.3,0.4-2.3,1.3-3.2c0.9-0.8,2-1.2,3.6-1.2h2.6V118z M215.9,111.2h2.6c0.1,0,0.1,0.1,0.1,0.1v8.8c0,2.6-1.2,4.4-3.7,5.3h-0.2
		c1.3-1.2,2-2.7,2-4.4c0-0.2,0-0.6-0.1-1.1h-1.5c-1.9,0-3.2-1.1-3.9-3.2l-0.1-1.2c0-2.1,1.1-3.5,3.3-4.2
		C215,111.3,215.5,111.2,215.9,111.2z M216.6,113.2h-0.7c-1,0-1.7,0.2-2.2,0.7c-0.5,0.4-0.7,1-0.7,1.7c0,0.9,0.3,1.5,1,2
		c0.4,0.3,1,0.4,1.9,0.4h0.7V113.2z M213.1,115.5v0.1c0,1.4,0.8,2.1,2.3,2.2h1.3v-4.6h-0.8c-1.4,0-2.2,0.5-2.6,1.5
		C213.1,115,213.1,115.3,213.1,115.5z"/>
	<path class="st2" d="M218.6,118h7.6v2h-7.6V118z"/>
	<path class="st2" d="M226.1,118h4.6v-6.7h2v6.7h0.2v2h-6.8V118z M228.8,106.7h0.2c0.6,0.1,0.9,0.5,0.9,1.2v0.3h0.5
		c1.3,0,2.1,0.4,2.5,1.3v0.3c-0.1,0.2-0.2,0.3-0.4,0.3c-1.4-0.5-2.3-0.7-2.8-0.7c-0.7,0-1.7,0.3-2.9,0.8l-0.1-0.1
		c0.5-0.8,1.3-1.3,2.5-1.7l0.3-0.1c0-0.2-0.1-0.5-0.4-0.7c0,0-0.1,0.1-0.2,0.1h-0.1c-0.3,0-0.5-0.2-0.5-0.5v0
		C228.4,106.9,228.5,106.7,228.8,106.7z"/>
	<path class="st2" d="M232.8,118h7.6v2h-7.6V118z"/>
	<path class="st2" d="M240.3,118h2.2v-10.9h2V120h-4.1V118z"/>
	<path class="st2" d="M245.7,107.1h1.9V120h-1.9V107.1z"/>
</g>
<g>
	<path class="st1" d="M134.1,163.1v-11.5l1.5-0.7h0.1v11.5L134.1,163.1L134.1,163.1z"/>
	<path class="st1" d="M138.7,163.1v-7c0-0.7,0.5-1.2,1.4-1.6c0.5-0.2,1.1-0.3,1.7-0.3c0.6,0,1.2,0.1,1.7,0.3
		c0.3,0.1,0.5,0.2,0.7,0.3c0.2-0.1,0.4-0.2,0.7-0.3c0.5-0.2,1.1-0.3,1.7-0.3c0.6,0,1.2,0.1,1.7,0.3c1,0.4,1.4,0.9,1.4,1.6v6.3
		l-1.5,0.7h-0.1v-6.7c0-0.3-0.2-0.4-0.5-0.6c-0.3-0.1-0.7-0.2-1.2-0.2s-0.8,0.1-1.2,0.2c-0.3,0.1-0.5,0.3-0.5,0.6v6.1l-1.5,0.7h-0.1
		v-6.7c0-0.3-0.2-0.4-0.5-0.6c-0.3-0.1-0.7-0.2-1.2-0.2c-0.5,0-0.8,0.1-1.2,0.2c-0.3,0.1-0.5,0.3-0.5,0.6v6.1L138.7,163.1
		L138.7,163.1z"/>
	<path class="st1" d="M159.4,156.1v5c0,0.7-0.5,1.2-1.4,1.6c-0.5,0.2-1.1,0.3-1.7,0.3c-0.6,0-1.2-0.1-1.6-0.3v2.9l-1.5,0.7H153
		v-10.2c0-0.7,0.5-1.2,1.4-1.6c0.5-0.2,1.1-0.3,1.7-0.3s1.2,0.1,1.7,0.3C158.9,154.9,159.4,155.4,159.4,156.1z M157.8,156.3
		c0-0.3-0.2-0.4-0.5-0.6c-0.3-0.1-0.7-0.2-1.2-0.2s-0.8,0.1-1.2,0.2c-0.3,0.1-0.5,0.3-0.5,0.6v4.4c0,0.3,0.2,0.4,0.5,0.6
		c0.3,0.1,0.7,0.2,1.2,0.2s0.8-0.1,1.2-0.2c0.3-0.1,0.5-0.3,0.5-0.6V156.3z"/>
	<path class="st1" d="M162.1,161.1v-5c0-0.7,0.5-1.2,1.4-1.6c0.5-0.2,1.1-0.3,1.7-0.3c0.6,0,1.2,0.1,1.7,0.3c1,0.4,1.4,0.9,1.4,1.6
		v5c0,0.7-0.5,1.2-1.4,1.6c-0.5,0.2-1.1,0.3-1.7,0.3c-0.6,0-1.2-0.1-1.7-0.3C162.5,162.3,162.1,161.7,162.1,161.1z M163.6,160.8
		c0,0.3,0.2,0.4,0.5,0.6c0.3,0.1,0.7,0.2,1.2,0.2c0.5,0,0.8-0.1,1.2-0.2c0.3-0.1,0.5-0.3,0.5-0.6v-4.4c0-0.3-0.2-0.4-0.5-0.6
		c-0.3-0.1-0.7-0.2-1.2-0.2c-0.5,0-0.8,0.1-1.2,0.2c-0.3,0.1-0.5,0.3-0.5,0.6V160.8z"/>
	<path class="st1" d="M171.1,163.1v-7c0-0.7,0.5-1.2,1.4-1.6c0.5-0.2,1.1-0.3,1.7-0.3h1v0.1l-0.6,1.3h-0.4c-0.5,0-0.8,0.1-1.2,0.2
		c-0.3,0.1-0.5,0.3-0.5,0.6v6.1L171.1,163.1L171.1,163.1z"/>
	<path class="st1" d="M178,163.1v-7.3h-2v-0.1l0.6-1.3h1.3v-2.8l1.5-0.7h0.1v3.4h2v0.1l-0.6,1.3h-1.3v6.7L178,163.1L178,163.1z"/>
	<path class="st1" d="M195.1,162.9c-0.5,0-0.9,0-1.4,0c-0.8,0-1.5-0.1-2.1-0.4c-1.2-0.5-1.7-1.2-1.7-2.1v-2.2c0-0.8,0.5-1.5,1.6-2
		c-0.6-0.6-0.9-1.1-0.9-1.7v-0.9c0-1,0.5-1.7,1.4-2.1c0.5-0.3,1.1-0.4,1.8-0.4s1.2,0.1,1.8,0.4c0.9,0.5,1.4,1.2,1.4,2.1v0.5
		l-1.5,0.7h-0.1v-1.2c0-0.4-0.2-0.7-0.6-0.9c-0.3-0.2-0.6-0.3-1.1-0.3c-0.4,0-0.8,0.1-1.1,0.3c-0.4,0.2-0.6,0.5-0.6,0.9v0.9
		c0,0.4,0.2,0.7,0.6,0.9c0.3,0.2,0.6,0.3,1,0.3c0.5,0,0.9,0.1,1.4,0.1l2.3,2.7l1.9-2.6h0.1l1.3,0.6l-2.4,3l2.4,2.9l-1.3,0.6h-0.1
		l-2.1-2.5L195.1,162.9z M194.2,157.1c-0.2,0-0.3,0-0.5,0c-0.5,0-1,0.1-1.4,0.3c-0.6,0.2-0.9,0.5-0.9,0.9v2.2c0,0.4,0.3,0.7,0.9,0.9
		c0.4,0.2,0.9,0.3,1.4,0.3c0.7,0,1.6-0.6,2.6-1.9L194.2,157.1z"/>
	<path class="st1" d="M210.3,162.8v-11.2l0.8-0.4h4.9v0.1l-0.6,1.3h-3.5v3.7h4.1v0.1l-0.6,1.3h-3.5v3.7h5.4v0.1l-0.6,1.3H210.3z"/>
	<path class="st1" d="M220,163.1L220,163.1l-1.4-0.6l2.4-3.9l-2.4-3.9l1.3-0.6h0.1l1.9,3l1.9-3h0.1l1.3,0.6l-2.4,3.9l2.4,3.9
		l-1.3,0.6h-0.1l-1.9-3.1L220,163.1z"/>
	<path class="st1" d="M233.8,156.1v5c0,0.7-0.5,1.2-1.4,1.6c-0.5,0.2-1.1,0.3-1.7,0.3c-0.6,0-1.2-0.1-1.6-0.3v2.9l-1.5,0.7h-0.1
		v-10.2c0-0.7,0.5-1.2,1.4-1.6c0.5-0.2,1.1-0.3,1.7-0.3s1.2,0.1,1.7,0.3C233.3,154.9,233.8,155.4,233.8,156.1z M232.3,156.3
		c0-0.3-0.2-0.4-0.5-0.6c-0.3-0.1-0.7-0.2-1.2-0.2s-0.8,0.1-1.2,0.2c-0.3,0.1-0.5,0.3-0.5,0.6v4.4c0,0.3,0.2,0.4,0.5,0.6
		c0.3,0.1,0.7,0.2,1.2,0.2s0.8-0.1,1.2-0.2c0.3-0.1,0.5-0.3,0.5-0.6V156.3z"/>
	<path class="st1" d="M236.5,161.1v-5c0-0.7,0.5-1.2,1.4-1.6c0.5-0.2,1.1-0.3,1.7-0.3c0.6,0,1.2,0.1,1.7,0.3c1,0.4,1.4,0.9,1.4,1.6
		v5c0,0.7-0.5,1.2-1.4,1.6c-0.5,0.2-1.1,0.3-1.7,0.3c-0.6,0-1.2-0.1-1.7-0.3C237,162.3,236.5,161.7,236.5,161.1z M238,160.8
		c0,0.3,0.2,0.4,0.5,0.6c0.3,0.1,0.7,0.2,1.2,0.2c0.5,0,0.8-0.1,1.2-0.2c0.3-0.1,0.5-0.3,0.5-0.6v-4.4c0-0.3-0.2-0.4-0.5-0.6
		c-0.3-0.1-0.7-0.2-1.2-0.2c-0.5,0-0.8,0.1-1.2,0.2c-0.3,0.1-0.5,0.3-0.5,0.6V160.8z"/>
	<path class="st1" d="M245.5,163.1v-7c0-0.7,0.5-1.2,1.4-1.6c0.5-0.2,1.1-0.3,1.7-0.3h1v0.1l-0.6,1.3h-0.4c-0.5,0-0.8,0.1-1.2,0.2
		c-0.3,0.1-0.5,0.3-0.5,0.6v6.1L245.5,163.1L245.5,163.1z"/>
	<path class="st1" d="M252.5,163.1v-7.3h-2v-0.1l0.6-1.3h1.3v-2.8l1.5-0.7h0.1v3.4h2v0.1l-0.6,1.3H254v6.7L252.5,163.1L252.5,163.1z
		"/>
</g>
<g>
	<path class="st1" d="M150.4,178.9v-5.9h-1.6V173l0.5-1.1h1.1v-2.2l1.2-0.6h0.1v2.8h1.6v0.1l-0.5,1.1h-1.1v5.3L150.4,178.9
		L150.4,178.9z"/>
	<path class="st1" d="M154.6,172.2l1.2-0.6h0.1v5.4c0,0.2,0.1,0.4,0.4,0.5c0.3,0.1,0.6,0.2,0.9,0.2c0.4,0,0.7-0.1,0.9-0.2
		c0.3-0.1,0.4-0.3,0.4-0.5v-4.8l1.2-0.6h0.1v5.4c0,0.2,0.1,0.4,0.4,0.5c0.3,0.1,0.6,0.2,0.9,0.2c0.4,0,0.7-0.1,0.9-0.2
		c0.3-0.1,0.4-0.3,0.4-0.5v-4.8l1.2-0.6h0.1v5.6c0,0.5-0.4,1-1.1,1.3c-0.4,0.2-0.9,0.2-1.4,0.2c-0.5,0-1-0.1-1.4-0.2
		c-0.2-0.1-0.4-0.2-0.5-0.3c-0.2,0.1-0.3,0.2-0.5,0.3c-0.4,0.2-0.9,0.2-1.4,0.2c-0.5,0-1-0.1-1.4-0.2c-0.8-0.3-1.1-0.7-1.1-1.3
		V172.2z"/>
	<path class="st1" d="M165.7,177.3v-4c0-0.5,0.4-1,1.1-1.3c0.4-0.2,0.9-0.2,1.4-0.2s1,0.1,1.4,0.2c0.8,0.3,1.1,0.7,1.1,1.3v4
		c0,0.5-0.4,1-1.1,1.3c-0.4,0.2-0.9,0.2-1.4,0.2s-1-0.1-1.4-0.2C166.1,178.3,165.7,177.8,165.7,177.3z M166.9,177.1
		c0,0.2,0.1,0.4,0.4,0.5c0.3,0.1,0.6,0.2,0.9,0.2c0.4,0,0.7-0.1,0.9-0.2c0.3-0.1,0.4-0.3,0.4-0.5v-3.6c0-0.2-0.1-0.4-0.4-0.5
		c-0.3-0.1-0.6-0.2-0.9-0.2c-0.4,0-0.7,0.1-0.9,0.2c-0.3,0.1-0.4,0.3-0.4,0.5V177.1z"/>
	<path class="st1" d="M173.3,178.9v-9.2l1.2-0.6h0.1v2.8c0.4-0.1,0.8-0.2,1.3-0.2c0.5,0,1,0.1,1.4,0.2c0.8,0.3,1.1,0.7,1.1,1.3v5.1
		l-1.2,0.6h-0.1v-5.4c0-0.2-0.1-0.4-0.4-0.5c-0.3-0.1-0.6-0.2-0.9-0.2c-0.4,0-0.7,0.1-0.9,0.2c-0.3,0.1-0.4,0.3-0.4,0.5v4.8
		L173.3,178.9L173.3,178.9z"/>
	<path class="st1" d="M181.3,178.9v-5.9h-1.6V173l0.5-1.1h1.1v-2.2l1.2-0.6h0.1v2.8h1.6v0.1l-0.5,1.1h-1.1v5.3L181.3,178.9
		L181.3,178.9z"/>
	<path class="st1" d="M185.5,178.9v-5.6c0-0.5,0.4-1,1.1-1.3c0.4-0.2,0.9-0.2,1.4-0.2h0.8v0.1l-0.5,1H188c-0.4,0-0.7,0.1-0.9,0.2
		c-0.3,0.1-0.4,0.3-0.4,0.5v4.8L185.5,178.9L185.5,178.9z"/>
	<path class="st1" d="M194.9,178.4l-1.2,0.6h-0.1v-0.3c-0.4,0.1-0.8,0.2-1.3,0.2c-0.5,0-0.9-0.1-1.3-0.2c-0.8-0.3-1.1-0.7-1.1-1.3
		v-1.7c0-0.5,0.4-1,1.1-1.3c0.4-0.2,0.9-0.2,1.3-0.2c0.4,0,0.9,0.1,1.3,0.2v-0.8c0-0.2-0.1-0.4-0.4-0.5c-0.3-0.1-0.6-0.2-0.9-0.2
		h-1.5v-0.1l0.5-1h1c0.5,0,1,0.1,1.4,0.2c0.8,0.3,1.1,0.7,1.1,1.3V178.4z M191.1,177.1c0,0.2,0.1,0.4,0.4,0.5
		c0.3,0.1,0.5,0.2,0.9,0.2c0.3,0,0.6-0.1,0.9-0.2c0.3-0.1,0.4-0.3,0.4-0.5v-1.2c0-0.2-0.1-0.4-0.4-0.5c-0.3-0.1-0.5-0.2-0.9-0.2
		c-0.3,0-0.6,0.1-0.9,0.2c-0.3,0.1-0.4,0.3-0.4,0.5V177.1z"/>
	<path class="st1" d="M197,177.3v-4c0-0.5,0.4-1,1.1-1.3c0.4-0.2,0.9-0.2,1.4-0.2c0.5,0,0.9,0.1,1.3,0.2v-2.3l1.2-0.6h0.1v8.1
		c0,0.5-0.4,1-1.1,1.3c-0.4,0.2-0.9,0.2-1.4,0.2s-1-0.1-1.4-0.2C197.4,178.3,197,177.8,197,177.3z M198.3,177.1
		c0,0.2,0.1,0.4,0.4,0.5c0.3,0.1,0.6,0.2,0.9,0.2c0.4,0,0.7-0.1,0.9-0.2c0.3-0.1,0.4-0.3,0.4-0.5v-3.6c0-0.2-0.1-0.4-0.4-0.5
		c-0.3-0.1-0.6-0.2-0.9-0.2c-0.4,0-0.7,0.1-0.9,0.2c-0.3,0.1-0.4,0.3-0.4,0.5V177.1z"/>
	<path class="st1" d="M209.7,176v1.3c0,0.5-0.4,1-1.1,1.3c-0.4,0.2-0.9,0.2-1.4,0.2s-1-0.1-1.4-0.2c-0.8-0.3-1.1-0.7-1.1-1.3v-4
		c0-0.5,0.4-1,1.1-1.3c0.4-0.2,0.9-0.2,1.4-0.2s1,0.1,1.4,0.2c0.8,0.3,1.1,0.7,1.1,1.3v0.8l-3.9,3c0,0.2,0.1,0.4,0.4,0.5
		c0.3,0.1,0.6,0.2,0.9,0.2c0.4,0,0.7-0.1,0.9-0.2c0.3-0.1,0.4-0.3,0.4-0.5v-0.6L209.7,176L209.7,176z M205.8,175.8l2.6-2v-0.2
		c0-0.2-0.1-0.4-0.4-0.5c-0.3-0.1-0.6-0.2-0.9-0.2c-0.4,0-0.7,0.1-0.9,0.2c-0.3,0.1-0.4,0.3-0.4,0.5V175.8z"/>
	<path class="st1" d="M212.2,178.6c-0.1-0.1-0.2-0.3-0.2-0.5c0-0.2,0.1-0.4,0.2-0.5c0.1-0.1,0.3-0.2,0.5-0.2s0.4,0.1,0.5,0.2
		c0.1,0.1,0.2,0.3,0.2,0.5c0,0.2-0.1,0.4-0.2,0.5c-0.1,0.1-0.3,0.2-0.5,0.2S212.4,178.7,212.2,178.6z"/>
	<path class="st1" d="M220.9,176v1.3c0,0.5-0.4,1-1.1,1.3c-0.4,0.2-0.9,0.2-1.4,0.2s-1-0.1-1.4-0.2c-0.8-0.3-1.1-0.7-1.1-1.3v-4
		c0-0.5,0.4-1,1.1-1.3c0.4-0.2,0.9-0.2,1.4-0.2s1,0.1,1.4,0.2c0.8,0.3,1.1,0.7,1.1,1.3v0.8l-1.2,0.6h-0.1v-1.1
		c0-0.2-0.1-0.4-0.4-0.5c-0.3-0.1-0.6-0.2-0.9-0.2c-0.4,0-0.7,0.1-0.9,0.2c-0.3,0.1-0.4,0.3-0.4,0.5v3.6c0,0.2,0.1,0.4,0.4,0.5
		c0.3,0.1,0.6,0.2,0.9,0.2c0.4,0,0.7-0.1,0.9-0.2c0.3-0.1,0.4-0.3,0.4-0.5v-0.6L220.9,176L220.9,176z"/>
	<path class="st1" d="M223,177.3v-4c0-0.5,0.4-1,1.1-1.3c0.4-0.2,0.9-0.2,1.4-0.2s1,0.1,1.4,0.2c0.8,0.3,1.1,0.7,1.1,1.3v4
		c0,0.5-0.4,1-1.1,1.3c-0.4,0.2-0.9,0.2-1.4,0.2s-1-0.1-1.4-0.2C223.4,178.3,223,177.8,223,177.3z M224.3,177.1
		c0,0.2,0.1,0.4,0.4,0.5c0.3,0.1,0.6,0.2,0.9,0.2c0.4,0,0.7-0.1,0.9-0.2c0.3-0.1,0.4-0.3,0.4-0.5v-3.6c0-0.2-0.1-0.4-0.4-0.5
		c-0.3-0.1-0.6-0.2-0.9-0.2c-0.4,0-0.7,0.1-0.9,0.2c-0.3,0.1-0.4,0.3-0.4,0.5V177.1z"/>
	<path class="st1" d="M230.3,178.9v-5.6c0-0.5,0.4-1,1.1-1.3c0.4-0.2,0.9-0.2,1.4-0.2c0.5,0,1,0.1,1.4,0.2c0.2,0.1,0.4,0.2,0.5,0.3
		c0.2-0.1,0.3-0.2,0.5-0.3c0.4-0.2,0.9-0.2,1.4-0.2c0.5,0,1,0.1,1.4,0.2c0.8,0.3,1.1,0.7,1.1,1.3v5.1l-1.2,0.6H238v-5.4
		c0-0.2-0.1-0.4-0.4-0.5c-0.3-0.1-0.6-0.2-0.9-0.2c-0.4,0-0.7,0.1-0.9,0.2c-0.3,0.1-0.4,0.3-0.4,0.5v4.8l-1.2,0.6h-0.1v-5.4
		c0-0.2-0.1-0.4-0.4-0.5c-0.3-0.1-0.6-0.2-0.9-0.2c-0.4,0-0.7,0.1-0.9,0.2c-0.3,0.1-0.4,0.3-0.4,0.5v4.8L230.3,178.9L230.3,178.9z"
		/>
</g>
<g>
	<path class="st2" d="M116.1,121.7h2.4l9.2,21.7h-4.3l-1.7-4.1h-9.2l-1.6,4.1h-4.3L116.1,121.7z M120.3,135.7l-3.1-7.8l-3.2,7.8
		H120.3z"/>
	<path class="st2" d="M134.6,121.7v14.9c0,1.6,0.5,2.6,1.5,3.3l1.9,1.1l-1.6,2.8c-2-0.9-3.4-1.8-4.1-2.6c-0.9-1-1.3-2.3-1.3-3.9
		v-15.6H134.6z"/>
	<path class="st2" d="M142.9,136.6v-2.2h9.7v2.2H142.9z"/>
	<path class="st2" d="M160.7,119.5h-8.5v-5.1h22.3v5.1h-8.5v23.8h-5.3V119.5z"/>
	<path class="st2" d="M179.7,114.4h4.8v9.5h0.1c1.5-2.3,3.7-3.4,6.9-3.4c2.4,0,4.4,0.9,6.1,2.6c1.7,1.8,2.6,4.1,2.6,6.8v13.4h-4.8
		v-12.4c0-3.8-1.8-5.7-5.3-5.7c-1.6,0-2.9,0.5-3.9,1.5c-1,1-1.6,2.4-1.6,4.2v12.4h-4.8V114.4z"/>
	<path class="st2" d="M219.6,141.3L219.6,141.3c-1.3,1.6-3.1,2.5-5.6,2.5c-2.6,0-4.7-0.9-6.4-2.8c-1.5-1.7-2.3-3.7-2.3-6
		c0-2.2,0.8-4.2,2.4-5.9c1.7-1.9,3.9-2.9,6.5-2.9c2.4,0,4.2,0.8,5.3,2.5h0.1v-2h3.6v16.7h-3.6V141.3z M210.8,138.8
		c1,1,2.3,1.6,3.8,1.6c1.4,0,2.6-0.5,3.7-1.6c1-1.1,1.5-2.3,1.5-3.8c0-1.5-0.5-2.8-1.5-3.8c-1-1-2.3-1.6-3.7-1.6
		c-1.5,0-2.7,0.5-3.8,1.6c-1,1.1-1.6,2.4-1.6,3.8C209.2,136.5,209.8,137.7,210.8,138.8z"/>
	<path class="st2" d="M226.7,126.6h3.9l3,9h0l3.5-8l3.5,8h0.1l3-9h3.8l-6.4,17.1l-3.9-9H237l-3.9,9L226.7,126.6z"/>
	<path class="st2" d="M250.9,126.6h3.4v1.8h0.1c0.7-1.5,1.7-2.3,3.3-2.3c0.8,0,1.5,0.2,2,0.5l-1.3,3.5c-0.4-0.3-0.8-0.5-1.3-0.5
		c-0.7,0-1.3,0.2-1.7,0.7c-0.5,0.5-0.7,1.1-0.7,1.8v11h-3.6V126.6z"/>
	<path class="st2" d="M275.6,141.3L275.6,141.3c-1.3,1.6-3.1,2.5-5.6,2.5c-2.6,0-4.7-0.9-6.4-2.8c-1.5-1.7-2.3-3.7-2.3-6
		c0-2.2,0.8-4.2,2.4-5.9c1.7-1.9,3.9-2.9,6.5-2.9c2.4,0,4.2,0.8,5.3,2.5h0.1v-2h3.6v16.7h-3.6V141.3z M266.8,138.8
		c1,1,2.3,1.6,3.8,1.6c1.4,0,2.6-0.5,3.7-1.6c1-1.1,1.5-2.3,1.5-3.8c0-1.5-0.5-2.8-1.5-3.8c-1-1-2.3-1.6-3.7-1.6
		c-1.5,0-2.7,0.5-3.8,1.6c-1,1.1-1.6,2.4-1.6,3.8C265.2,136.5,265.8,137.7,266.8,138.8z"/>
</g>
</svg>
